<mxfile host="app.diagrams.net" agent="Mozilla/5.0 (Windows NT 10.0; Win64; x64) AppleWebKit/537.36 (KHTML, like Gecko) Chrome/136.0.0.0 Safari/537.36" version="27.1.1">
  <diagram name="Seite-1" id="iBwbIjL_ePKChbjKwXmN">
    <mxGraphModel dx="1410" dy="783" grid="0" gridSize="10" guides="1" tooltips="1" connect="1" arrows="1" fold="1" page="1" pageScale="1" pageWidth="1169" pageHeight="827" background="light-dark(#ffffff, #ebebeb)" math="0" shadow="0">
      <root>
        <mxCell id="0" />
        <mxCell id="1" parent="0" />
        <mxCell id="_xtCz1zmfFPLqv1ufrO2-31" value="&lt;b&gt;LeonardoAI&lt;/b&gt;" style="shape=umlFrame;whiteSpace=wrap;html=1;pointerEvents=0;labelBackgroundColor=none;fillColor=light-dark(#ffffff, #ededed);strokeColor=#000000;strokeWidth=2;fontColor=light-dark(#000000, #121212);width=99;height=28;" parent="1" vertex="1">
          <mxGeometry x="407" y="14" width="376" height="312" as="geometry" />
        </mxCell>
        <mxCell id="_xtCz1zmfFPLqv1ufrO2-32" value="&lt;div style=&quot;font-size: 14px;&quot;&gt;&lt;font style=&quot;font-size: 14px;&quot;&gt;&lt;br&gt;&lt;/font&gt;&lt;/div&gt;&lt;font style=&quot;font-size: 14px;&quot;&gt;MongoDB&lt;/font&gt;" style="strokeWidth=2;html=1;shape=mxgraph.flowchart.database;whiteSpace=wrap;labelBackgroundColor=none;fillColor=light-dark(#ffffff, #ededed);strokeColor=#000000;fontColor=light-dark(#000000, #121212);" parent="1" vertex="1">
          <mxGeometry x="640" y="137" width="123" height="80" as="geometry" />
        </mxCell>
        <mxCell id="_xtCz1zmfFPLqv1ufrO2-33" value="&lt;div style=&quot;font-size: 14px;&quot;&gt;&lt;font style=&quot;font-size: 14px;&quot;&gt;&lt;br&gt;&lt;/font&gt;&lt;/div&gt;&lt;font style=&quot;font-size: 14px;&quot;&gt;Milvus&lt;/font&gt;" style="strokeWidth=2;html=1;shape=mxgraph.flowchart.database;whiteSpace=wrap;labelBackgroundColor=none;fillColor=light-dark(#ffffff, #ededed);strokeColor=#000000;fontColor=light-dark(#000000, #121212);" parent="1" vertex="1">
          <mxGeometry x="641.5" y="231" width="120" height="80" as="geometry" />
        </mxCell>
        <mxCell id="_xtCz1zmfFPLqv1ufrO2-34" style="rounded=0;orthogonalLoop=1;jettySize=auto;html=1;entryX=0.5;entryY=1;entryDx=0;entryDy=0;labelBackgroundColor=none;strokeColor=light-dark(#000000, #121212);fontColor=default;jumpSize=6;strokeWidth=2;endArrow=none;endFill=0;startArrow=classic;startFill=1;" parent="1" source="_xtCz1zmfFPLqv1ufrO2-35" target="_xtCz1zmfFPLqv1ufrO2-36" edge="1">
          <mxGeometry relative="1" as="geometry" />
        </mxCell>
        <mxCell id="_xtCz1zmfFPLqv1ufrO2-35" value="&lt;span style=&quot;font-size: 14px;&quot;&gt;GenAI·Finder&lt;/span&gt;&lt;div&gt;&lt;span style=&quot;font-size: 14px;&quot;&gt;API&lt;/span&gt;&lt;/div&gt;" style="whiteSpace=wrap;html=1;align=center;labelBackgroundColor=none;fillColor=light-dark(#ffffff, #ededed);strokeColor=#000000;fontColor=light-dark(#000000, #121212);strokeWidth=2;" parent="1" vertex="1">
          <mxGeometry x="430" y="194" width="120" height="60" as="geometry" />
        </mxCell>
        <mxCell id="_xtCz1zmfFPLqv1ufrO2-36" value="&lt;font style=&quot;font-size: 14px;&quot;&gt;ISCC-Web&lt;/font&gt;" style="whiteSpace=wrap;html=1;align=center;labelBackgroundColor=none;fillColor=light-dark(#ffffff, #ededed);strokeColor=#000000;fontColor=light-dark(#000000, #121212);strokeWidth=2;" parent="1" vertex="1">
          <mxGeometry x="430" y="64" width="120" height="60" as="geometry" />
        </mxCell>
        <mxCell id="_xtCz1zmfFPLqv1ufrO2-37" style="rounded=0;orthogonalLoop=1;jettySize=auto;html=1;entryX=0;entryY=0.5;entryDx=0;entryDy=0;entryPerimeter=0;exitX=1;exitY=0.25;exitDx=0;exitDy=0;labelBackgroundColor=none;strokeColor=light-dark(#000000, #121212);fontColor=default;strokeWidth=2;jumpSize=6;endArrow=none;endFill=0;startArrow=classic;startFill=1;" parent="1" source="_xtCz1zmfFPLqv1ufrO2-35" target="_xtCz1zmfFPLqv1ufrO2-32" edge="1">
          <mxGeometry relative="1" as="geometry" />
        </mxCell>
        <mxCell id="_xtCz1zmfFPLqv1ufrO2-38" style="rounded=0;orthogonalLoop=1;jettySize=auto;html=1;entryX=0;entryY=0.5;entryDx=0;entryDy=0;entryPerimeter=0;exitX=1;exitY=0.75;exitDx=0;exitDy=0;labelBackgroundColor=none;strokeColor=light-dark(#000000, #121212);fontColor=default;strokeWidth=2;jumpSize=6;endArrow=none;endFill=0;startArrow=classic;startFill=1;" parent="1" source="_xtCz1zmfFPLqv1ufrO2-35" target="_xtCz1zmfFPLqv1ufrO2-33" edge="1">
          <mxGeometry relative="1" as="geometry" />
        </mxCell>
        <mxCell id="_xtCz1zmfFPLqv1ufrO2-40" value="&lt;b&gt;OpenAI&lt;/b&gt;" style="shape=umlFrame;whiteSpace=wrap;html=1;pointerEvents=0;labelBackgroundColor=none;fillColor=light-dark(#ffffff, #ededed);strokeColor=#000000;strokeWidth=2;fontColor=light-dark(#000000, #121212);width=99;height=28;" parent="1" vertex="1">
          <mxGeometry x="13" y="14" width="376" height="312" as="geometry" />
        </mxCell>
        <mxCell id="_xtCz1zmfFPLqv1ufrO2-41" value="&lt;div style=&quot;font-size: 14px;&quot;&gt;&lt;font style=&quot;font-size: 14px;&quot;&gt;&lt;br&gt;&lt;/font&gt;&lt;/div&gt;&lt;font style=&quot;font-size: 14px;&quot;&gt;MongoDB&lt;/font&gt;" style="strokeWidth=2;html=1;shape=mxgraph.flowchart.database;whiteSpace=wrap;labelBackgroundColor=none;fillColor=light-dark(#ffffff, #ededed);strokeColor=#000000;fontColor=light-dark(#000000, #121212);" parent="1" vertex="1">
          <mxGeometry x="246" y="137" width="123" height="80" as="geometry" />
        </mxCell>
        <mxCell id="_xtCz1zmfFPLqv1ufrO2-42" value="&lt;div style=&quot;font-size: 14px;&quot;&gt;&lt;font style=&quot;font-size: 14px;&quot;&gt;&lt;br&gt;&lt;/font&gt;&lt;/div&gt;&lt;font style=&quot;font-size: 14px;&quot;&gt;Milvus&lt;/font&gt;" style="strokeWidth=2;html=1;shape=mxgraph.flowchart.database;whiteSpace=wrap;labelBackgroundColor=none;fillColor=light-dark(#ffffff, #ededed);strokeColor=#000000;fontColor=light-dark(#000000, #121212);" parent="1" vertex="1">
          <mxGeometry x="247.5" y="231" width="120" height="80" as="geometry" />
        </mxCell>
        <mxCell id="_xtCz1zmfFPLqv1ufrO2-43" style="rounded=0;orthogonalLoop=1;jettySize=auto;html=1;entryX=0.5;entryY=1;entryDx=0;entryDy=0;labelBackgroundColor=none;strokeColor=light-dark(#000000, #121212);fontColor=default;jumpSize=6;strokeWidth=2;endArrow=none;endFill=0;startArrow=classic;startFill=1;" parent="1" source="_xtCz1zmfFPLqv1ufrO2-44" target="_xtCz1zmfFPLqv1ufrO2-45" edge="1">
          <mxGeometry relative="1" as="geometry" />
        </mxCell>
        <mxCell id="_xtCz1zmfFPLqv1ufrO2-44" value="&lt;span style=&quot;font-size: 14px;&quot;&gt;GenAI·Finder&lt;/span&gt;&lt;div&gt;&lt;span style=&quot;font-size: 14px;&quot;&gt;API&lt;/span&gt;&lt;/div&gt;" style="whiteSpace=wrap;html=1;align=center;labelBackgroundColor=none;fillColor=light-dark(#ffffff, #ededed);strokeColor=#000000;fontColor=light-dark(#000000, #121212);strokeWidth=2;" parent="1" vertex="1">
          <mxGeometry x="36" y="194" width="120" height="60" as="geometry" />
        </mxCell>
        <mxCell id="_xtCz1zmfFPLqv1ufrO2-45" value="&lt;font style=&quot;font-size: 14px;&quot;&gt;ISCC-Web&lt;/font&gt;" style="whiteSpace=wrap;html=1;align=center;labelBackgroundColor=none;fillColor=light-dark(#ffffff, #ededed);strokeColor=#000000;fontColor=light-dark(#000000, #121212);strokeWidth=2;" parent="1" vertex="1">
          <mxGeometry x="36" y="64" width="120" height="60" as="geometry" />
        </mxCell>
        <mxCell id="_xtCz1zmfFPLqv1ufrO2-46" style="rounded=0;orthogonalLoop=1;jettySize=auto;html=1;entryX=0;entryY=0.5;entryDx=0;entryDy=0;entryPerimeter=0;exitX=1;exitY=0.25;exitDx=0;exitDy=0;labelBackgroundColor=none;strokeColor=light-dark(#000000, #121212);fontColor=default;strokeWidth=2;jumpSize=6;endArrow=none;endFill=0;startArrow=classic;startFill=1;" parent="1" source="_xtCz1zmfFPLqv1ufrO2-44" target="_xtCz1zmfFPLqv1ufrO2-41" edge="1">
          <mxGeometry relative="1" as="geometry" />
        </mxCell>
        <mxCell id="_xtCz1zmfFPLqv1ufrO2-47" style="rounded=0;orthogonalLoop=1;jettySize=auto;html=1;entryX=0;entryY=0.5;entryDx=0;entryDy=0;entryPerimeter=0;exitX=1;exitY=0.75;exitDx=0;exitDy=0;labelBackgroundColor=none;strokeColor=light-dark(#000000, #121212);fontColor=default;strokeWidth=2;jumpSize=6;endArrow=none;endFill=0;startArrow=classic;startFill=1;" parent="1" source="_xtCz1zmfFPLqv1ufrO2-44" target="_xtCz1zmfFPLqv1ufrO2-42" edge="1">
          <mxGeometry relative="1" as="geometry" />
        </mxCell>
        <mxCell id="_xtCz1zmfFPLqv1ufrO2-66" style="rounded=0;orthogonalLoop=1;jettySize=auto;html=1;entryX=0.5;entryY=1;entryDx=0;entryDy=0;strokeColor=light-dark(#000000, #121212);strokeWidth=2;edgeStyle=orthogonalEdgeStyle;" parent="1" source="_xtCz1zmfFPLqv1ufrO2-51" target="_xtCz1zmfFPLqv1ufrO2-35" edge="1">
          <mxGeometry relative="1" as="geometry" />
        </mxCell>
        <mxCell id="_xtCz1zmfFPLqv1ufrO2-67" style="rounded=0;orthogonalLoop=1;jettySize=auto;html=1;entryX=0.5;entryY=1;entryDx=0;entryDy=0;strokeColor=light-dark(#000000, #121212);strokeWidth=2;edgeStyle=orthogonalEdgeStyle;" parent="1" source="_xtCz1zmfFPLqv1ufrO2-51" target="_xtCz1zmfFPLqv1ufrO2-44" edge="1">
          <mxGeometry relative="1" as="geometry" />
        </mxCell>
        <mxCell id="_xtCz1zmfFPLqv1ufrO2-51" value="&lt;font style=&quot;font-size: 18px;&quot;&gt;App&lt;/font&gt;" style="ellipse;whiteSpace=wrap;html=1;strokeColor=#000000;fontColor=light-dark(#000000, #121212);fillColor=light-dark(#ffffff, #ededed);strokeWidth=2;" parent="1" vertex="1">
          <mxGeometry x="262.5" y="359" width="90" height="90" as="geometry" />
        </mxCell>
      </root>
    </mxGraphModel>
  </diagram>
</mxfile>
